<?xml version="1.0"?>
<svg width="170" height="145" xmlns="http://www.w3.org/2000/svg" xmlns:svg="http://www.w3.org/2000/svg" preserveAspectRatio="xMidYMid meet" version="1.0">
 <title>GPU</title>
 <g class="layer">
  <title>Layer 1</title>
  <rect fill="#69d5f7" height="102.77" id="svg_54" transform="matrix(1 0 0 1 0 0)" width="143.37" x="17.42" y="4.57"/>
  <rect fill="#69d5f7" height="130" id="svg_56" width="5.65" x="13.4" y="9.02"/>
  <rect fill="#69d5f7" height="6.3" id="svg_57" transform="matrix(1 0 0 1 0 0) matrix(1 0 0 1 0 0)" width="17.17" x="2.97" y="22.93"/>
  <rect fill="#69d5f7" height="94.35" id="svg_58" width="6.96" x="10.58" y="27.5"/>
  <rect fill="#69d5f7" height="16.3" id="svg_59" width="135.22" x="24.27" y="98.15"/>
  <rect fill="#69d5f7" height="28.04" id="svg_60" width="7.83" x="6.45" y="84.24"/>
  <rect fill="#69d5f7" height="11.52" id="svg_61" width="5" x="26.66" y="115.11"/>
  <rect fill="#ff7f00" height="17.83" id="svg_62" width="60.65" x="54.49" y="117.28"/>
  <rect fill="#ff7f00" height="8.04" id="svg_63" transform="matrix(1 0 0 1 0 0)" width="10.87" x="42.75" y="116.2"/>
  <rect fill="#69d5f7" height="100.32" id="svg_64" transform="matrix(1 0 0 1 0 0)" width="7.21" x="157.16" y="5.74"/>
  <rect fill="#69d5f7" height="6.06" id="svg_69" transform="matrix(1 0 0 1 0 0)" width="6.48" x="19.81" y="103.61"/>
  <path d="m22.27,1.17c-4.08,0.91 -7.61,4.36 -8.82,8.63c-0.47,1.6 -0.49,1.95 -0.49,6.9l0,5.18l-4.53,0c-5.72,0.02 -6.13,0.15 -7.41,2.36c-0.99,1.76 -0.7,4.27 0.7,5.94c0.9,1.08 1.93,1.45 4.14,1.45c1.85,0 2.01,0.04 2.75,0.63c1.52,1.24 1.42,-0.69 1.42,25.7l0,23.55l-0.98,0c-1.72,0 -3.12,1.15 -3.69,3.01c-0.16,0.52 -0.21,4.6 -0.21,13.77c0,12.17 0.04,13.1 0.37,13.9c0.64,1.58 2.03,2.49 3.77,2.49l0.72,0l0.06,6.44l0.06,6.46l0.59,1.17c0.33,0.65 0.94,1.47 1.4,1.84l0.82,0.67l0.02,3.8c0,4.1 0.14,5.08 0.88,6.03c0.33,0.43 0.47,0.87 0.45,1.41c0.67,1.41 4.53,0.04 4.53,-0.04c0,-0.09 0.18,-0.35 0.41,-0.59c0.23,-0.22 0.59,-0.78 0.78,-1.21c0.33,-0.72 0.37,-1.32 0.37,-5.47l0,-4.64l4.55,-0.09l4.53,-0.07l1.17,-0.65c1.4,-0.78 2.32,-2.02 2.61,-3.58c0.12,-0.61 0.21,-2.91 0.21,-5.1l0,-4.01l3.98,0l3.98,0l0.06,3.41c0.08,3.27 0.1,3.47 0.6,4.45c0.37,0.69 0.8,1.13 1.39,1.45c0.78,0.41 1.17,0.46 5.25,0.46l4.41,0l0.08,3.41c0.08,3.21 0.12,3.49 0.59,4.53c0.96,2.02 2.5,3.32 4.49,3.77c0.78,0.17 4.16,0.22 11.51,0.15c10.22,-0.09 10.42,-0.09 11.37,-0.56c0.55,-0.26 1.37,-0.91 1.85,-1.45l0.9,-0.95l0.76,0.89c0.43,0.48 1.23,1.15 1.76,1.45l0.98,0.59l12.58,0l12.58,0l1.07,-0.56c1.56,-0.8 2.44,-1.76 3.16,-3.41l0.64,-1.45l0.06,-8.07l0.06,-8.09l19.1,0c21.19,0 20.87,0.02 23.59,-1.41c2.73,-1.45 4.86,-3.82 6.16,-6.9c1.37,-3.14 1.29,0.2 1.23,-50.53l-0.06,-45.81l-0.45,-1.41c-1.37,-4.23 -4.08,-7.48 -7.51,-9.04c-2.63,-1.19 0.62,-1.15 -70.37,-1.13c-54.27,0.02 -65.88,0.07 -66.97,0.3zm134.43,4.12c3.47,0.89 6.32,3.95 7.04,7.53c0.23,1.15 0.31,90.87 0.08,91.74c-0.08,0.33 -0.14,-7.96 -0.1,-18.41c0.04,-12.97 0,-19.06 -0.16,-19.24c-0.14,-0.15 -0.2,0.15 -0.2,1c0,0.8 -0.1,1.3 -0.29,1.47c-0.25,0.24 -0.29,-3.04 -0.33,-28.11l-0.06,-28.39l-0.57,-1.3c-0.7,-1.58 -2.24,-3.34 -3.57,-4.1c-1.15,-0.63 -3.14,-1.04 -4.19,-0.87c-0.62,0.13 -0.74,0.22 -0.74,0.67c0,0.37 -0.47,1.06 -1.48,2.26c-1.74,2.02 -2.24,3.19 -2.38,5.31c-0.14,2.23 0.31,3.56 1.7,5.08c1.44,1.58 2.58,2.04 4.76,1.91c1.19,-0.07 1.89,-0.24 2.75,-0.67c0.62,-0.33 1.21,-0.54 1.27,-0.46c0.06,0.07 0.14,11.71 0.18,25.9l0.04,25.77l-0.82,0.54c-0.74,0.48 -0.86,0.5 -0.94,0.2c-0.06,-0.22 -0.06,-10.97 0,-23.92c0.06,-12.95 0.06,-23.71 0.04,-23.92c-0.06,-0.33 -0.23,-0.35 -1.4,-0.22c-1.46,0.15 -2.54,-0.13 -4.53,-1.24c-0.62,-0.35 -1.21,-0.63 -1.33,-0.63c-0.45,0 -0.14,0.89 0.78,2.3c1.31,2 3.22,6.31 3.69,8.35c0.35,1.52 0.39,2.58 0.43,13.27c0.04,6.4 0,11.69 -0.06,11.78c-0.08,0.07 -0.31,0.07 -0.53,-0.02c-0.39,-0.13 -0.41,-0.3 -0.41,-2.67c0,-2.91 -0.2,-3.51 -1.17,-3.51c-0.41,0 -0.7,0.2 -0.99,0.63c-0.62,0.95 -2.22,2.36 -2.07,1.84c0.06,-0.22 0.43,-1.41 0.8,-2.62c1.17,-3.75 1.56,-6.53 1.56,-11.02c0.02,-2.99 -0.06,-4.32 -0.33,-5.68c-0.47,-2.39 -1.68,-6.33 -2.48,-8.09c-2.24,-4.99 -6.26,-9.69 -10.24,-12.04c-0.74,-0.46 -1.6,-1.08 -1.89,-1.43c-0.29,-0.35 -0.62,-0.63 -0.76,-0.63c-0.14,0 -0.08,0.15 0.14,0.33c0.35,0.3 0.33,0.33 -0.16,0.09c-0.29,-0.15 -0.49,-0.37 -0.41,-0.48c0.08,-0.13 0,-0.17 -0.2,-0.09c-0.18,0.07 -0.33,0.07 -0.37,-0.02c-0.08,-0.22 -3.28,-1.28 -4.7,-1.58c-0.7,-0.13 -3.53,-0.2 -7.32,-0.15l-6.18,0.07l-1.56,0.63c-4.27,1.67 -7.34,3.84 -10.63,7.5c-3.34,3.69 -5.58,7.72 -6.98,12.58c-1.01,3.47 -1.11,4.29 -1.11,9.33c0.02,5.38 0.33,7.61 1.68,11.39c1.39,3.99 4.1,8.59 6.69,11.41l1.54,1.67l-0.86,0.48c-0.47,0.28 -1.25,0.8 -1.76,1.19l-0.92,0.69l-4.06,0.15c-2.24,0.07 -6.83,0.09 -10.2,0.02l-6.11,-0.11l-0.98,-0.98c-0.51,-0.56 -1.54,-1.3 -2.24,-1.67c-1.09,-0.56 -1.56,-0.69 -2.77,-0.69c-0.82,-0.02 -1.81,0.07 -2.2,0.15l-0.72,0.17l1.29,-1.37c3.51,-3.73 6.05,-9.3 7.22,-15.9c0.25,-1.47 0.35,-3.04 0.35,-6.4c0,-4.81 -0.16,-6.16 -1.11,-9.41c-1.39,-4.81 -3.3,-8.2 -6.71,-11.95c-2.58,-2.84 -3.92,-4.03 -6.36,-5.57c-0.9,-0.56 -1.74,-1.15 -1.89,-1.28c-0.39,-0.39 -3.22,-1.41 -4.94,-1.8c-2.03,-0.46 -9.81,-0.48 -12.45,-0.02c-5.21,0.89 -8.95,3.1 -13.23,7.85c-5.31,5.88 -7.9,12.6 -8.39,21.65l-0.14,2.39l-1.6,0.04c-0.9,0 -1.64,-0.04 -1.68,-0.11c-0.02,-0.09 0,-0.59 0.06,-1.13l0.12,-0.98c-0.14,-0.86 -0.14,-0.98 -0.04,-2.08c0.06,-0.65 0.16,-1.87 0.23,-2.69c0.14,-1.67 0.68,-3.86 1.11,-4.4c0.14,-0.22 0.43,-0.87 0.62,-1.45c0.53,-1.58 2.13,-4.94 3.34,-6.94c1.25,-2.08 4.96,-6.96 6.36,-8.42c1.89,-1.93 4.74,-4.42 5.62,-4.94l0.88,-0.5l17.56,-0.15c9.66,-0.09 24.48,-0.22 32.95,-0.33c11.8,-0.11 15.35,-0.11 15.26,0.11c-0.08,0.13 -0.86,0.89 -1.74,1.67c-0.88,0.78 -1.76,1.54 -1.93,1.71c-0.18,0.15 -0.55,0.46 -0.84,0.67l-0.51,0.37l0.41,-0.78c0.33,-0.63 0.37,-0.82 0.16,-0.91c-0.14,-0.04 -7.3,-0.09 -15.9,-0.04c-11.69,0.02 -15.7,0.11 -15.88,0.3c-0.12,0.13 -0.18,0.48 -0.12,0.76c0.16,0.65 8.02,9.37 8.37,9.24c0.25,-0.11 0.51,-0.78 0.92,-2.45c0.23,-0.98 1.58,-3.06 2.46,-3.84c0.55,-0.48 0.72,-0.5 4.84,-0.56l4.27,-0.09l0.78,0.85c0.43,0.46 1.46,1.91 2.32,3.23c0.84,1.32 1.72,2.58 1.93,2.8c0.37,0.37 0.39,0.35 0.92,-0.35c1.01,-1.34 3.28,-3.62 5.81,-5.86c1.4,-1.21 3.06,-2.78 3.71,-3.45c1.72,-1.78 2.22,-2.17 2.93,-2.17c0.33,0 1.13,-0.2 1.76,-0.43c1.09,-0.41 1.64,-0.43 13.15,-0.43l12.02,0l2.73,2.65c1.5,1.47 3.53,3.51 4.51,4.55c0.98,1.06 1.87,1.91 1.99,1.91c0.12,0 0.02,-0.48 -0.21,-1.15c-0.29,-0.8 -0.41,-1.65 -0.41,-2.97c-0.02,-1.63 0.06,-2 0.59,-3.25c0.39,-0.91 1.05,-1.91 1.91,-2.86c0.76,-0.85 1.29,-1.6 1.29,-1.89l0,-0.46l-12.72,-0.02c-25.11,-0.04 -58.45,-0.07 -83.89,-0.02l-25.87,0.04l0.12,0.48c0.06,0.26 0.66,1.11 1.37,1.87c2.59,2.91 3.2,6.51 1.68,9.87c-0.94,2.02 -2.95,3.64 -5.29,4.25c-1.01,0.28 -2.34,0.28 -2.69,0.02c-0.1,-0.09 -0.62,-0.3 -1.15,-0.5l-0.94,-0.37l0.14,0.8c0.08,0.46 0.27,1.11 0.45,1.47c0.29,0.56 0.33,1.6 0.39,7.48c0.04,3.75 -0.02,7.2 -0.1,7.66l-0.16,0.85l-1.52,-1.26l-1.54,-1.24l0.08,-8.26c0.06,-7.11 0.12,-8.37 0.39,-9.09c0.18,-0.43 0.43,-0.8 0.57,-0.8c0.12,0 0.94,0.39 1.81,0.89c1.52,0.85 1.64,0.87 3.14,0.8c1.89,-0.09 3.1,-0.67 4.43,-2.15c1.05,-1.17 1.52,-2.58 1.52,-4.55c0,-2.08 -0.6,-3.51 -2.28,-5.38c-0.92,-1.02 -1.48,-1.84 -1.56,-2.23l-0.12,-0.65l-2.75,0.09c-2.48,0.07 -2.85,0.13 -3.84,0.63c-2.03,1.06 -3.41,2.93 -3.86,5.23c-0.12,0.56 -0.23,3.77 -0.25,7.16c-0.04,3.73 -0.12,5.53 -0.2,4.62c-0.14,-1.76 -0.06,2.95 0.25,13.56c0.25,8.96 -0.11,26 -0.12,26.61c-0.01,0.61 0.16,1.65 0.1,1.8c-0.07,0.15 0.16,9 0.18,20c-0.55,33.57 -0.51,39.1 -0.45,39.3c0.06,0.2 0.23,0.35 0.37,0.35c0.53,0 0.51,0.82 -0.02,1.71l-0.51,0.89l0.06,4.81c0.04,2.71 0,4.86 -0.1,4.88c-0.1,0.02 -0.25,0.15 -0.33,0.33c-0.39,0.65 -0.51,-0.54 -0.62,-6.61c-0.21,-9.98 -0.16,-117.4 0.06,-119c0.41,-3.12 2.17,-5.75 4.86,-7.22l1.29,-0.69l56.67,-0.11c67.81,-0.13 75.91,-0.09 77.6,0.33zm-118.2,4.32c0.53,0.63 0.45,1.5 -0.18,1.87c-0.45,0.26 -0.49,0.17 -0.16,-0.41c0.31,-0.56 0.06,-1.11 -0.53,-1.11c-0.62,0 -1.07,0.89 -0.68,1.41c0.14,0.17 0.33,0.26 0.45,0.17c0.12,-0.07 0.14,-0.02 0.06,0.11c-0.14,0.24 -0.6,0.13 -1.03,-0.24c-0.14,-0.11 -0.25,-0.52 -0.25,-0.93c0,-1.32 1.48,-1.87 2.32,-0.87zm107.8,0c0.47,0.52 0.49,0.95 0.06,1.58c-0.23,0.33 -1.33,0.76 -1.33,0.52c0,-0.11 0.18,-0.24 0.37,-0.3c0.59,-0.15 0.86,-0.91 0.49,-1.32c-0.45,-0.52 -1.03,-0.41 -1.29,0.22c-0.18,0.43 -0.18,0.65 0,0.98c0.2,0.35 0.18,0.41 -0.08,0.41c-0.43,0 -0.84,-0.63 -0.86,-1.26c-0.02,-1.28 1.74,-1.82 2.63,-0.82zm-118.88,0.17c0.98,0.3 2.22,1.5 2.71,2.58c0.55,1.19 0.51,1.67 -0.14,1.76c-0.49,0.07 -0.6,-0.07 -0.96,-0.93c-0.49,-1.13 -1.03,-1.65 -1.97,-1.84c-2.22,-0.46 -4.14,1.67 -3.59,3.99c0.12,0.46 0.39,1.04 0.6,1.28l0.39,0.48l-0.57,0.46c-0.55,0.41 -0.59,0.41 -0.92,0.07c-1.03,-1.15 -1.4,-3.67 -0.78,-5.05c1.07,-2.32 3.2,-3.45 5.21,-2.78zm129.73,0.87c0.41,0.26 0.99,0.87 1.29,1.32c0.47,0.76 0.55,1.08 0.53,2.3c-0.02,1.89 -0.57,3.08 -1.78,3.93c-1.21,0.85 -2.03,1 -3.04,0.56c-2.34,-1 -3.41,-4.21 -2.18,-6.55c1.01,-1.93 3.43,-2.67 5.19,-1.56zm-129.94,2.78c0.53,0.59 0.49,1.43 -0.12,2.08c-0.37,0.43 -0.6,0.52 -1.01,0.41c-1.15,-0.3 -1.56,-1.41 -0.9,-2.45c0.39,-0.63 1.48,-0.65 2.03,-0.04zm35.31,2.15c9.21,2.58 15.82,10.35 17.26,20.28c1.05,7.24 -0.6,14.4 -4.66,20.02c-3.32,4.55 -7.88,7.59 -13.38,8.87c-2.22,0.52 -6.48,0.52 -8.82,0c-5.95,-1.3 -11.18,-4.79 -14.59,-9.69c-3.39,-4.9 -5.03,-10.48 -4.82,-16.35c0.41,-10.82 7,-20.06 16.21,-22.79c2.75,-0.8 3.92,-0.93 7.73,-0.85c2.67,0.04 3.77,0.17 5.07,0.52zm67.71,-0.28c3.24,0.63 6.93,2.21 9.31,4.03c1.35,1.04 4.43,4.4 5.4,5.94c4.55,7.07 5.38,16.81 2.15,24.7c-3.73,9.11 -12.17,15.12 -21.26,15.12c-9.25,0.02 -17.81,-6.16 -21.34,-15.38c-1.31,-3.41 -1.62,-5.05 -1.72,-9.17c-0.12,-4.21 0.14,-6.33 1.05,-9.17c2.63,-8.22 9.31,-14.53 16.97,-16.07c2.15,-0.43 7.16,-0.43 9.44,0zm-48.71,1.41c0.64,0.56 0.68,1.54 0.08,2.02c-0.59,0.46 -0.92,0.43 -1.46,-0.13c-0.82,-0.85 -0.39,-2.17 0.74,-2.32c0.08,-0.02 0.35,0.17 0.64,0.43zm19.51,0c1.29,1.13 -0.06,3.08 -1.4,2.02c-0.84,-0.65 -0.35,-2.47 0.66,-2.47c0.12,0 0.45,0.2 0.74,0.46zm-86.75,57.93c-0.04,47.22 -0.06,49.73 -0.37,49.71c-0.2,-0.02 -0.35,0.04 -0.35,0.15c0,0.11 -0.06,0.2 -0.14,0.2c-0.1,0 -0.18,-21.15 -0.2,-47c-0.06,-50.95 0,-48.56 -1.07,-49.67c-0.82,-0.82 -1.25,-0.93 -3.61,-0.91c-1.44,0.02 -2.05,0.09 -1.62,0.2c0.66,0.13 0.66,0.15 0.18,0.3c-0.27,0.09 -0.96,0.13 -1.54,0.09c-0.86,-0.04 -1.09,-0.17 -1.42,-0.65c-0.37,-0.56 -0.37,-0.61 -0.06,-1.15c0.18,-0.3 0.53,-0.65 0.76,-0.76c0.23,-0.11 2.46,-0.2 4.96,-0.2l4.53,-0.02l-0.04,49.71zm7.43,-32.6c0.92,1.02 1.33,1.87 1.03,2.08c-0.08,0.04 -0.64,-0.3 -1.25,-0.8c-0.96,-0.78 -1.11,-1 -1.11,-1.63c0,-0.39 0.08,-0.72 0.2,-0.72c0.1,0 0.6,0.48 1.13,1.06zm0.04,4.25l0.86,0.98l0.06,29c0.04,23.97 0.1,29.28 0.31,30.47c0.2,1.04 0.21,1.41 0.06,1.34c-0.37,-0.15 -1.68,-2.84 -2.18,-4.49l-0.47,-1.54l0,-28.37c0,-23.03 0.04,-28.37 0.25,-28.37c0.14,0 0.64,0.43 1.11,0.98zm7.22,0.3c0,0.13 -0.45,0.24 -1.01,0.28c-0.98,0.07 -1.03,0.11 -1.54,1.06c-0.29,0.54 -0.59,1.24 -0.66,1.52c-0.14,0.46 -0.12,0.48 0.18,0.22c0.27,-0.26 0.31,-0.24 0.31,0.07c0,0.22 0.08,0.3 0.2,0.24c0.1,-0.07 0.14,0 0.08,0.17c-0.08,0.24 0.14,0.37 0.88,0.48c0.53,0.09 1.05,0.09 1.15,0.02c0.1,-0.07 0.14,0.11 0.1,0.39c-0.1,0.54 -0.53,0.78 -1.44,0.78c-0.41,0 -0.55,-0.13 -0.66,-0.61l-0.14,-0.59l-0.27,0.74c-0.2,0.52 -0.21,0.82 -0.08,0.98c0.14,0.15 0.2,0.09 0.2,-0.2c0,-0.22 0.04,-0.35 0.1,-0.28c0.06,0.07 0.04,0.54 -0.04,1.06l-0.14,0.95l-0.12,-0.76c-0.08,-0.56 -0.2,-0.74 -0.43,-0.69c-0.29,0.04 -0.31,-0.22 -0.27,-2.54c0.04,-3.34 0.14,-3.49 2.2,-3.49c0.78,0 1.42,0.09 1.42,0.2zm-3.3,7.61c-0.06,0.65 -0.18,1.08 -0.23,0.98c-0.18,-0.3 0.04,-2.56 0.21,-2.34c0.08,0.09 0.08,0.72 0.02,1.37zm0.47,0.87c0.06,0.11 0.02,0.22 -0.08,0.22c-0.12,0 -0.21,-0.11 -0.21,-0.22c0,-0.13 0.04,-0.22 0.08,-0.22c0.06,0 0.16,0.09 0.21,0.22zm6.93,5.29l0,2.47l-1.01,1.28c-1.97,2.41 -2.05,2.45 -4.62,2.54l-2.17,0.04l0,-3.01c0,-3.23 0.16,-3.97 1.07,-4.92c0.62,-0.65 1.44,-0.8 4.35,-0.85l2.38,-0.02l0,2.47zm119.8,4.06c-0.02,2.99 -0.12,5.68 -0.21,5.96c-0.2,0.56 -0.8,0.8 -1.78,0.69c-0.57,-0.07 -0.68,0.02 -0.96,0.65l-0.31,0.74l-1.03,-1.26c-0.57,-0.67 -1.25,-1.58 -1.54,-2.02c-0.27,-0.43 -0.76,-1.08 -1.09,-1.47l-0.57,-0.69l1.89,-2.21c1.05,-1.21 2.4,-2.67 3,-3.23c0.62,-0.56 1.42,-1.41 1.79,-1.89c0.37,-0.48 0.72,-0.82 0.76,-0.78c0.06,0.04 0.06,2.52 0.04,5.51zm3.49,-3.06c0,0.41 -0.14,0.74 -0.39,0.91c-0.43,0.3 -0.49,0.76 -0.2,1.52c0.12,0.28 0.27,2.17 0.35,4.23l0.14,3.73l-0.47,0.24c-0.25,0.13 -0.51,0.2 -0.55,0.13c-0.06,-0.04 -0.06,-1.84 -0.04,-3.97c0.04,-2.13 0.04,-4.66 0,-5.66l-0.06,-1.78l0.6,0c0.55,0 0.6,0.07 0.6,0.65zm-119.04,3.17c0.51,0.15 1.01,1.11 1.01,1.91c0,0.69 -1.01,1.65 -1.78,1.65c-0.37,0 -0.74,-0.2 -1.03,-0.54l-0.43,-0.52l-1.46,1.43c-0.8,0.78 -1.72,1.56 -2.07,1.71c-0.76,0.37 -6.01,0.43 -6.2,0.09c-0.06,-0.13 -0.06,-0.41 0,-0.65c0.12,-0.41 0.29,-0.43 2.79,-0.43c3.08,0 2.83,0.13 5.38,-2.49c2.26,-2.3 2.59,-2.49 3.78,-2.15zm41.86,3.64c1.83,0.61 3.04,2.21 3.45,4.55c0.82,4.53 -3.37,8.31 -7.18,6.44c-3.28,-1.6 -4.23,-6.27 -1.91,-9.3c1.25,-1.65 3.63,-2.36 5.64,-1.69zm65.02,1.02c0.82,0.56 1.23,1.43 1.23,2.58c0,1.76 -0.72,2.6 -2.63,3.04c-1.54,0.35 -2.18,0.74 -2.63,1.58c-0.37,0.67 -0.39,1.19 -0.39,14.53c0,14.92 0.02,14.7 -1.03,15.94c-1.05,1.26 -0.9,1.24 -10.03,1.3l-8.43,0.07l-1.27,-1.91l-1.27,-1.91l4.33,-0.07c4.31,-0.07 4.33,-0.07 4.62,0.43c0.16,0.28 0.57,0.82 0.88,1.19l0.59,0.72l4,0.04c4.41,0.07 4.96,-0.04 5.52,-1.13c0.29,-0.54 0.31,-0.87 0.14,-2.54c-0.27,-2.69 -0.25,-24.88 0.02,-26.33c0.18,-0.87 0.41,-1.34 1.07,-2.08c0.84,-0.91 0.86,-1 0.86,-2.3c0,-1.56 0.43,-2.52 1.4,-3.19c0.86,-0.59 2.17,-0.56 3.02,0.02zm-102.75,1.26c0.35,0.39 0.62,0.95 0.7,1.5c0.12,0.85 0.14,0.87 1.05,0.95c0.51,0.07 1.27,0.3 1.68,0.54c0.84,0.48 1.91,2.06 2.22,3.27c0.1,0.43 0.2,3.08 0.2,5.83l0,5.05l-0.98,0l-0.96,0l-0.06,-5.4l-0.06,-5.4l-0.49,-0.61c-0.68,-0.82 -1.56,-1.17 -2.93,-1.17c-1.87,0 -3.24,-1.02 -3.61,-2.67c-0.45,-1.97 1.91,-3.38 3.22,-1.91zm46.39,4.81c-0.06,2.56 -0.08,2.69 -0.47,2.75c-0.86,0.13 -1.05,-0.43 -1.05,-3.1l0,-2.47l0.64,-0.07c0.33,-0.04 0.7,-0.02 0.78,0.07c0.08,0.07 0.12,1.34 0.1,2.82zm15.9,-0.59c-0.02,1.3 -0.12,2.45 -0.21,2.56c-0.1,0.11 -3,0.26 -6.46,0.33l-6.26,0.13l0,-2.75l0,-2.73l6.5,0.04l6.48,0.07l-0.04,2.36zm3.92,-0.26c-0.14,2.28 -0.25,2.56 -0.98,2.56c-0.39,0 -0.41,-0.15 -0.53,-2.19c-0.08,-1.21 -0.08,-2.3 -0.02,-2.39c0.06,-0.11 0.45,-0.2 0.88,-0.2l0.78,0l-0.14,2.21zm3.04,-0.41l0,1.8l-0.59,0.24l-0.59,0.24l0,-2.04l0,-2.04l0.59,0l0.59,0l0,1.8zm3.71,-0.61c0,0.54 -0.08,0.98 -0.2,0.98c-0.35,0 -0.49,0.04 -0.82,0.24c-0.31,0.2 -0.35,0.09 -0.35,-1l0,-1.19l0.68,0c0.68,0 0.68,0 0.68,0.98zm-80.02,-0.26l0.43,0.5l-1.03,1.11c-0.99,1.06 -2.65,2.23 -3.18,2.23c-0.16,0 -0.27,0.09 -0.27,0.17c0,0.26 1.01,1.26 1.42,1.41c0.55,0.22 1.37,-0.37 1.83,-1.3c0.23,-0.46 0.82,-1.24 1.29,-1.76l0.86,-0.93l1.72,1.84c1.99,2.1 2.01,1.74 -0.21,4.1c-1.46,1.52 -4.94,4.71 -5.17,4.71c-0.21,0 -1.93,-1.76 -1.93,-2c0,-0.11 0.14,-0.04 0.31,0.15c0.23,0.24 0.39,0.28 0.53,0.13c0.14,-0.15 0.29,-0.15 0.45,0c0.31,0.28 1.42,-0.41 2.01,-1.24c0.37,-0.52 0.74,-0.74 0.49,-0.26c-0.08,0.13 0.35,-0.15 0.94,-0.61c0.6,-0.46 1.03,-0.93 0.98,-1.04c-0.06,-0.11 0.04,-0.13 0.23,-0.07c0.18,0.09 0.29,0.07 0.23,-0.02c-0.06,-0.11 0.08,-0.35 0.31,-0.56c0.29,-0.28 0.45,-0.33 0.55,-0.15c0.1,0.2 0.21,0.15 0.39,-0.09c0.21,-0.28 0.2,-0.33 -0.12,-0.2c-0.35,0.15 -0.35,0.13 -0.02,-0.26c0.23,-0.28 0.39,-0.33 0.49,-0.17c0.1,0.15 0.29,0.07 0.59,-0.26l0.43,-0.52l-0.59,0.09c-0.31,0.04 -0.8,0.24 -1.09,0.46l-0.53,0.37l0.33,-0.5c0.18,-0.28 0.31,-0.65 0.31,-0.82c0,-0.43 -0.59,-1.11 -0.96,-1.11c-0.18,0 -1.07,0.74 -1.97,1.63c-1.25,1.24 -1.79,1.63 -2.24,1.65c-0.31,0 -0.78,0.04 -1.01,0.07c-0.27,0.04 -0.66,-0.2 -1.07,-0.67c-0.33,-0.39 -0.74,-0.72 -0.9,-0.72c-0.74,0 -3.2,-2.41 -3.53,-3.45c-0.29,-0.98 -0.27,-2.13 0.04,-2.26c0.12,-0.07 2.05,-0.13 4.25,-0.13c3.94,-0.02 4.02,-0.02 4.43,0.48zm35.25,0.04c0.49,0.52 0.66,1.67 0.33,2.19c-0.25,0.41 -1.09,0.95 -1.46,0.95c-0.6,0 -1.5,-1.17 -1.5,-1.95c0,-0.89 0.76,-1.74 1.56,-1.74c0.37,0 0.78,0.2 1.07,0.54zm-11.88,2.73c0.31,0.37 0.31,0.41 0,0.54c-0.25,0.11 -0.62,-0.17 -1.33,-0.91c-1.46,-1.6 -1.56,-2.04 -0.2,-0.95c0.64,0.5 1.33,1.08 1.52,1.32zm-4.9,0.22c0.86,0.8 2.05,2 2.63,2.69c2.2,2.52 7.02,6.44 10.34,8.39c3.49,2.08 7.92,3.67 13.05,4.66c2.81,0.54 3.45,0.59 8.41,0.61c5.74,0 7.41,-0.2 12.06,-1.32c7.76,-1.91 14.87,-5.86 19.55,-10.82c2.17,-2.3 3.67,-3.77 4.17,-4.06c0.23,-0.13 0.35,-0.15 0.27,-0.07c-0.08,0.09 -0.06,0.35 0.06,0.59c0.18,0.35 -0.16,0.78 -2.3,3.17c-2.13,2.36 -3.55,3.71 -6.11,5.75c-0.7,0.54 1.03,-0.39 2.05,-1.13c1.42,-1 4.45,-3.8 6.13,-5.6c0.92,-0.98 1.7,-1.76 1.74,-1.69c0.25,0.28 -1.39,2.58 -3.65,5.12c-3.06,3.41 -5.4,5.23 -9.52,7.48c-3.18,1.74 -6.09,2.91 -9.91,3.99c-3.47,1 -5.99,1.41 -10.73,1.76c-9.52,0.69 -17.48,-0.87 -24.97,-4.88c-7.2,-3.86 -11.9,-8.59 -14.71,-14.81c-0.33,-0.74 -0.6,-1.41 -0.6,-1.47c0,-0.22 0.43,0.11 2.05,1.65zm107.59,-1.02c0,0.61 -0.12,0.82 -0.78,1.3c-0.43,0.3 -0.86,0.56 -0.98,0.56c-0.23,0 -0.25,-1.28 -0.04,-1.67c0.12,-0.22 1.05,-0.69 1.76,-0.91c0.02,-0.02 0.04,0.3 0.04,0.72zm-38.96,0.2c-0.33,0.59 -0.94,1.24 -1.15,1.24c-0.14,0 -0.27,0.11 -0.31,0.26c-0.12,0.35 -0.55,0 -0.55,-0.43c0,-0.48 1.48,-1.45 1.62,-1.06c0.06,0.15 0.12,0.09 0.12,-0.13c0.02,-0.22 0.12,-0.33 0.21,-0.26c0.12,0.09 0.14,0.26 0.06,0.39zm-57.86,2.08c4.7,2.6 10.11,4.73 13.87,5.44c3.39,0.65 3.67,0.63 4.82,-0.63l0.98,-1.04l8.78,-0.11c4.84,-0.07 8.56,-0.04 8.29,0.04c-0.27,0.11 -0.37,0.17 -0.23,0.2c0.14,0.02 0.2,0.11 0.14,0.24c-0.18,0.3 -0.27,0.33 3.77,-0.78c3.77,-1.02 7.51,-2.45 10.65,-4.08c1.56,-0.82 1.89,-0.91 2.09,-0.65c0.31,0.41 0,0.8 -1.58,1.93c-8.19,5.88 -18.47,8.89 -28.97,8.5c-9.42,-0.37 -17.36,-2.95 -23.94,-7.79c-2.11,-1.56 -2.54,-2.1 -2.11,-2.67c0.27,-0.37 0.33,-0.35 3.45,1.39zm92.8,-0.04c0,0.39 -0.02,4.9 -0.04,10.02l-0.04,9.3l-0.86,0.13c-1.29,0.22 -3.08,1.3 -4.02,2.43c-1.15,1.39 -1.6,2.65 -1.62,4.53c-0.02,1.37 0.06,1.76 0.59,2.91l0.62,1.32l-4.76,0l-4.76,0l0.43,-1.04c0.43,-1.02 0.43,-1.11 0.49,-15.44c0.02,-7.94 0.08,-14.55 0.14,-14.7c0.06,-0.22 1.56,-0.26 6.96,-0.22l6.89,0.07l-0.02,0.69zm-21.15,0.43c0,1.08 -0.16,1.15 -2.4,1.08l-2.09,-0.04l0,-0.82l0,-0.8l2.24,0l2.24,0l0,0.59zm25.17,11.26l0,11.17l-0.92,-1.04l-0.94,-1.04l-0.04,-9.54c-0.04,-5.25 0.02,-9.65 0.1,-9.78c0.12,-0.17 0.6,-0.43 1.76,-0.93c0.02,-0.02 0.04,5.01 0.04,11.17zm-122.12,-10.67c0,0.07 -0.08,0.17 -0.2,0.24c-0.1,0.07 -0.2,0.02 -0.2,-0.09c0,-0.13 0.1,-0.24 0.2,-0.24c0.12,0 0.2,0.04 0.2,0.09zm4.25,13.9c-0.04,0.02 -0.29,0.11 -0.59,0.2l-0.55,0.13l0,-1.71c0,-1.69 0,-1.71 -0.53,-1.78c-1.54,-0.24 -1.81,0.07 -1.81,2.04l0,1.04l-0.62,-0.07l-0.64,-0.07l-0.06,-1.47l-0.06,-1.45l-1.05,0l-1.07,0l0,1.95c0,1.5 0.08,2.1 0.33,2.56c0.31,0.54 0.29,0.52 -0.35,-0.15c-0.6,-0.61 -2.05,-1.74 -3.8,-2.99c-0.33,-0.24 -0.14,-0.52 2.46,-3.32c1.56,-1.67 3.45,-3.54 4.19,-4.12c0.76,-0.61 1.81,-1.43 2.34,-1.87c1.91,-1.52 1.76,-1.97 1.81,4.97c0.02,3.34 0.02,6.09 0,6.12zm-7.76,-11.28c-0.35,0.41 -0.7,0.69 -0.76,0.63c-0.1,-0.11 1.11,-1.37 1.33,-1.39c0.06,0 -0.2,0.35 -0.57,0.76zm100.43,0.13l-0.06,0.65l-2.2,0.04l-2.18,0.04l0,-0.72l0,-0.69l2.26,0l2.24,0l-0.06,0.67zm-105.01,1.45c-0.06,0.07 -0.21,0 -0.35,-0.15c-0.18,-0.22 -0.16,-0.24 0.12,-0.11c0.2,0.07 0.29,0.2 0.23,0.26zm22.12,0.8c0.62,0.35 0.8,0.72 0.8,1.69c0,1.63 -1.83,2.3 -2.81,1c-0.66,-0.87 -0.64,-1.6 0.06,-2.39c0.64,-0.69 1.13,-0.78 1.95,-0.3zm74.35,1.17c1.66,1.32 1.87,4.03 0.43,5.75c-0.68,0.8 -1.89,1.43 -2.81,1.43l-0.74,0l0,2.99c0,2.67 -0.04,3.1 -0.43,3.95c-0.25,0.54 -0.72,1.17 -1.07,1.43c-0.59,0.43 -0.94,0.46 -8.58,0.61c-4.37,0.07 -8.56,0.2 -9.32,0.26l-1.37,0.11l0.68,-0.69c0.37,-0.37 1.19,-1.04 1.79,-1.5l1.13,-0.82l6.38,-0.07c5.97,-0.09 6.44,-0.11 7.06,-0.52c1.4,-0.91 1.46,-1.17 1.58,-6.03c0.1,-4.77 0.18,-5.08 1.33,-6.29c1.15,-1.21 2.85,-1.47 3.94,-0.61zm-115.29,1.95l0,1.08l-1.05,0.13c-1.66,0.24 -1.78,0.17 -1.83,-1.15l-0.06,-1.13l1.46,0l1.48,0l0,1.06zm123.88,0.13l0,0.76l-2.24,0l-2.24,0l0,-0.76l0,-0.76l2.24,0l2.24,0l0,0.76zm-107.08,0.82c1.21,1.04 0.86,3.38 -0.55,3.69c-1.7,0.37 -2.89,-2 -1.72,-3.41c0.53,-0.63 1.68,-0.78 2.26,-0.28zm35.93,5.27c2.79,1.56 7.32,3.49 9.79,4.19c0.43,0.11 1.15,0.33 1.6,0.43l0.8,0.24l-0.2,0.8c-0.1,0.43 -0.12,0.82 -0.02,0.91c0.1,0.07 0.86,0.69 1.7,1.39c0.82,0.69 2.07,1.6 2.77,2.02c1.25,0.78 1.27,0.78 3.51,0.76c1.5,-0.02 2.2,0.04 2.13,0.2c-0.06,0.11 -0.28,0.22 -0.19,0.22c0.1,0 -0.03,0.56 -0.64,0.82c-1.03,0.43 -1.68,0.39 -4.76,0.3c-1.81,-0.04 -1.93,-0.07 -2.93,-0.85c-1.25,-0.93 -3.28,-2.78 -6.55,-5.96c-1.44,-1.39 -2.67,-2.41 -3.12,-2.56c-1.56,-0.56 -6.67,-3.47 -8.19,-4.68c-1.91,-1.54 -3.77,-3.3 -3.77,-3.56c0,-0.13 1.35,0.78 2.97,1.97c1.64,1.21 3.92,2.73 5.09,3.36zm-11.8,-3.47c0.41,0.3 0.43,0.46 0.43,3.58c0,3.49 0.16,4.25 1.03,4.79c0.31,0.22 2.09,0.3 6.57,0.39l6.16,0.11l1.39,1.15c0.76,0.63 1.48,1.26 1.6,1.41c0.21,0.3 0.59,0.3 -12.66,0.09c-4.49,-0.09 -4.86,-0.17 -5.79,-1.28c-0.9,-1.06 -1.03,-1.87 -1.03,-5.86c0,-3.54 0.02,-3.75 0.43,-4.23c0.49,-0.59 1.25,-0.65 1.87,-0.15zm82.95,0.24c0,0.35 -0.08,0.72 -0.16,0.85c-0.08,0.13 -0.99,0.24 -2.22,0.26l-2.11,0.04l0,-0.87l0,-0.87l2.24,0l2.24,0l0,0.59zm-88.29,-0.02c0.39,0.17 0.41,0.82 0.02,1.17c-0.37,0.35 -0.37,0.87 0,1.17c0.23,0.2 0.29,1.39 0.33,7.55l0.06,7.33l0.64,0c0.82,0 1.62,-0.46 2.24,-1.3c0.41,-0.52 0.64,-0.65 1.29,-0.65c0.72,0 0.94,0.15 2.26,1.54c0.8,0.85 1.46,1.63 1.46,1.74c0,0.11 -0.37,0.2 -0.82,0.2c-0.74,0 -0.94,-0.13 -1.83,-1.11c-0.68,-0.74 -1.13,-1.08 -1.33,-1c-0.45,0.2 -0.39,0.65 0.18,1.24c0.27,0.28 0.49,0.56 0.49,0.63c0,0.07 -2.97,0.13 -6.59,0.13c-7.24,-0.02 -7.28,-0.02 -8.7,-1.41c-1.17,-1.15 -1.29,-1.58 -1.23,-4.6c0.04,-2.26 -0.02,-2.78 -0.33,-3.43c-0.88,-1.87 -2.4,-3.01 -4.21,-3.19c-0.94,-0.11 -1.17,-0.04 -1.48,0.3c-0.2,0.24 -0.62,0.61 -0.96,0.8c-0.94,0.54 -1.44,1.13 -1.76,1.95c-0.41,1.06 -0.37,2.28 0.1,3.04c0.49,0.87 1.7,1.65 2.5,1.65c1.44,0 2.85,-1.41 3.1,-3.14c0.12,-0.85 0.59,-1.02 1.11,-0.41c0.82,0.91 -0.2,3.58 -1.79,4.73c-1.54,1.13 -3.71,0.85 -5.27,-0.65c-3.49,-3.3 -1.5,-9.13 3.32,-9.76c2.69,-0.35 5.56,1.69 6.4,4.55c0.23,0.82 0.18,3.54 -0.1,4.9c-0.18,0.76 0.84,2.41 1.79,2.91c0.51,0.28 1.35,0.43 2.73,0.52c1.74,0.09 2.09,0.04 2.83,-0.37c0.47,-0.24 1.05,-0.8 1.33,-1.26l0.49,-0.78l0.06,-7.57l0.06,-7.55l0.66,0c0.35,0 0.78,0.07 0.96,0.13zm10.77,2.54c0.39,0.39 0.49,0.63 0.39,0.93c-0.16,0.37 -0.18,0.35 -0.35,-0.2c-0.21,-0.63 -0.37,-0.69 -0.96,-0.37c-0.41,0.26 -0.51,0.98 -0.16,1.21c0.16,0.09 0.16,0.2 0,0.37c-0.29,0.33 -0.99,-0.43 -0.99,-1.06c0,-0.5 0.82,-1.39 1.29,-1.39c0.14,0 0.49,0.24 0.78,0.5zm-46.35,6.01l0,6.29l-1.46,0l-1.46,0l0,-6.16c0,-7.01 -0.18,-6.35 1.81,-6.4l1.11,-0.02l0,6.29zm119.88,-3.9c0.06,0.11 0.02,0.22 -0.08,0.22c-0.12,0 -0.62,0.61 -1.11,1.34c-0.49,0.76 -0.96,1.39 -1.05,1.43c-0.25,0.11 -0.78,-0.61 -0.78,-1.04c0,-0.67 0.39,-1.41 0.94,-1.8c0.59,-0.39 1.89,-0.5 2.09,-0.15zm3.02,0.22c0.49,0.54 0.49,1.21 0,2.1c-0.37,0.72 -0.41,0.72 -1.85,0.72c-0.8,0 -1.46,-0.07 -1.46,-0.13c0,-0.07 0.23,-0.54 0.51,-1.06c0.31,-0.61 0.45,-1.13 0.37,-1.39c-0.1,-0.35 0,-0.43 0.43,-0.52c1.21,-0.2 1.64,-0.13 2.01,0.28zm-96.82,0.07c0.06,0.09 -0.1,0.15 -0.39,0.15c-0.27,0 -0.55,-0.09 -0.6,-0.17c-0.1,-0.2 0.8,-0.17 0.99,0.02zm72.59,0.04c-0.62,0.39 -3.36,1.52 -4.72,2c-1.15,0.39 -2.11,1.04 -3.92,2.67c-2.3,2.04 -5.93,5.08 -6.59,5.47c-0.55,0.35 -1.19,0.39 -4.66,0.39c-2.24,0 -4.06,-0.07 -4.06,-0.13c0,-0.17 1.23,-1.39 1.46,-1.41c0.1,0 1.13,-0.04 2.26,-0.07l2.09,-0.02l2.09,-1.8c1.48,-1.26 2.26,-1.78 2.65,-1.78c0.6,0 0.96,-0.5 0.96,-1.37c0,-0.5 0.12,-0.56 1.23,-0.78c1.7,-0.33 6.65,-1.78 9.21,-2.69c2.36,-0.85 2.81,-0.95 2.01,-0.48zm-67.65,5.9c0,2.13 -0.08,3.99 -0.16,4.14c-0.37,0.63 -3.04,0.56 -3.65,-0.09c-0.23,-0.28 -0.29,-1.02 -0.29,-3.99l0,-3.67l0.55,-0.09c0.29,-0.04 1.21,-0.11 2.05,-0.13l1.5,-0.02l0,3.84zm39.78,-2.08c2.73,0.24 9.97,0.13 11.22,-0.17c0.41,-0.09 0.53,-0.04 0.47,0.17c-0.04,0.15 -0.68,0.41 -1.5,0.56c-0.86,0.2 -1.78,0.54 -2.36,0.95l-0.98,0.65l-2.83,-0.07c-2.13,-0.04 -2.89,-0.13 -3,-0.37c-0.1,-0.15 -1.19,-0.61 -2.46,-1c-1.25,-0.39 -2.38,-0.85 -2.52,-0.98c-0.16,-0.22 -0.06,-0.24 0.45,-0.13c0.37,0.07 1.95,0.24 3.51,0.37zm-51.76,0.8c0.55,0.78 0.21,2.08 -0.62,2.43c-1.13,0.48 -2.28,-1.04 -1.7,-2.26c0.49,-1.02 1.68,-1.13 2.32,-0.17zm126.84,0.67c1.31,0.74 1.99,2.06 1.99,3.82c0,1.34 -0.37,2.23 -1.33,3.19c-0.99,1 -2.18,1.39 -3.16,1.06c-1.54,-0.52 -2.91,-2.45 -2.93,-4.14c0,-0.87 0.74,-2.75 1.29,-3.27c1.17,-1.11 2.85,-1.39 4.14,-0.65zm-24.44,1.58c-0.06,0.39 -0.23,1.3 -0.37,2.02l-0.23,1.3l-1.01,0.07c-0.86,0.07 -1.09,-0.02 -1.5,-0.48c-0.68,-0.76 -0.66,-2.02 0.02,-2.93c0.47,-0.63 0.59,-0.67 1.87,-0.67l1.37,0l-0.14,0.69zm2.75,-0.22c-0.06,0.28 -0.12,1.15 -0.12,1.95l0,1.47l-0.7,0c-0.57,0 -0.66,-0.07 -0.59,-0.39c0.06,-0.2 0.16,-1.08 0.23,-1.95c0.14,-1.56 0.14,-1.56 0.7,-1.56c0.53,0 0.59,0.07 0.47,0.48zm-62.64,3.43c0.98,0.82 2.38,2.06 3.12,2.73c1.46,1.32 5.17,5.18 5.17,5.38c0,0.07 -0.31,0.13 -0.72,0.13c-0.59,0 -0.98,-0.24 -2.18,-1.34c-0.82,-0.74 -1.89,-1.76 -2.4,-2.28l-0.92,-0.93l-4.47,0l-4.47,0l-1.35,-1.06c-1.79,-1.41 -3.98,-3.45 -3.98,-3.71c0,-0.13 1.46,-0.24 3.57,-0.28c1.95,-0.02 4.29,-0.07 5.21,-0.11l1.66,-0.04l1.76,1.52zm36.93,-0.76c0.02,0.02 -0.6,0.8 -1.4,1.74c-0.8,0.93 -1.48,1.89 -1.52,2.15c-0.06,0.46 -0.14,0.46 -4.8,0.52l-4.74,0.04l-2.09,2c-1.15,1.08 -2.11,2.06 -2.15,2.17c-0.04,0.09 -0.2,0.17 -0.35,0.17c-0.16,0 -0.27,0.09 -0.27,0.2c0,0.11 -0.18,0.15 -0.39,0.09c-0.21,-0.07 -0.39,-0.2 -0.39,-0.28c0,-0.3 5.19,-5.75 6.73,-7.07c2.61,-2.23 1.95,-2.06 6.93,-1.89c2.42,0.07 4.41,0.15 4.45,0.17zm5.83,0.8c0.12,0.28 0.62,1.02 1.11,1.67c1.56,2 1.72,1.87 -2.13,1.95c-2.05,0.04 -3.41,-0.02 -3.47,-0.15c-0.16,-0.26 3.73,-3.93 4.17,-3.95c0.06,0 0.21,0.22 0.31,0.48zm-81.68,1.84c-0.02,0.11 -0.14,0.41 -0.27,0.69c-0.16,0.3 -0.21,0.69 -0.16,0.87c0.1,0.3 0.06,0.3 -0.21,0.07c-0.18,-0.17 -0.41,-0.24 -0.53,-0.15c-0.25,0.17 0.98,2.75 1.78,3.69c0.31,0.37 0.57,0.74 0.57,0.82c0,0.09 -0.76,0.15 -1.68,0.15l-1.68,0l-1.83,-1.32c-1.01,-0.74 -1.83,-1.47 -1.83,-1.65c0,-0.17 -0.27,-0.61 -0.6,-0.98c-0.76,-0.87 -1.25,-1.69 -0.99,-1.69c0.35,0 0.82,0.26 0.74,0.41c-0.1,0.17 0.84,0.3 2.63,0.33c1.31,0.02 1.6,-0.07 2.63,-0.67c1.23,-0.72 1.44,-0.8 1.44,-0.56zm24.89,0.74c0.43,0.37 0.8,0.72 0.84,0.76c0.04,0.04 -0.47,0.09 -1.13,0.09c-1.11,0 -1.19,-0.02 -0.92,-0.35c0.23,-0.26 0.25,-0.43 0.12,-0.76c-0.31,-0.65 0.21,-0.52 1.09,0.26zm-47.52,2.36l0,1.3l-1.09,0c-1.52,0 -1.83,-0.24 -1.83,-1.39c0,-0.5 0.06,-1 0.14,-1.06c0.06,-0.09 0.72,-0.15 1.46,-0.15l1.33,0l0,1.3zm64.22,2.17l0.64,0.65l-11.61,-0.04c-7.1,-0.02 -2.61,0.16 -0.93,0.07c3.18,-0.17 -4.67,-0.44 -5.31,-0.68c-0.41,-0.15 -0.33,-0.2 0.49,-0.24c-8.99,-0.28 -6.98,-0.33 2.77,-0.37l13.32,-0.04l0.62,0.65zm34.3,-0.46l-2.24,0.13l2.15,0.2c1.19,0.09 3.69,0.24 5.56,0.33c4.19,0.2 3.04,0.24 -8,0.35c-4.14,0.04 -8.37,0.15 -9.4,0.22c-1.05,0.09 -1.91,0.09 -1.91,0.02c0,-0.09 0.29,-0.41 0.64,-0.78l0.62,-0.63l7.41,0.02c4.08,0.02 6.4,0.09 5.17,0.15zm-64.38,8.59l0,2.28l3.43,0l3.41,0l-0.06,0.59c-0.04,0.35 -0.18,0.61 -0.29,0.59c-0.14,-0.02 -1.83,-0.04 -3.77,-0.07l-3.51,-0.02l0,-2.82c0,-2.67 0.02,-2.82 0.39,-2.82c0.37,0 0.39,0.15 0.39,2.28zm11.7,5.49c-0.14,0.07 -0.1,0.2 0.1,0.35c0.25,0.2 0.29,0.82 0.25,4.47l-0.06,4.23l-0.47,-0.98l-0.47,-0.98l0.14,-5.96c0.1,-4.19 0.21,-6.01 0.37,-6.12c0.18,-0.11 0.25,0.5 0.29,2.39c0.04,1.67 -0.02,2.56 -0.16,2.6zm9.09,5.12c0.06,2.36 0.02,4.4 -0.06,4.49c-0.1,0.11 -0.35,0.13 -0.6,0.07c-0.43,-0.13 -0.43,-0.17 -0.41,-4.08c0.02,-5.05 0.25,-10.15 0.49,-10.54c0.2,-0.37 0.41,3.21 0.59,10.06zm-6.59,-7.48c0.06,1.78 0.02,2.43 -0.14,2.32c-0.12,-0.09 -0.21,-0.33 -0.21,-0.52c0,-0.33 -0.04,-0.33 -0.2,-0.04c-0.14,0.22 -0.2,-0.43 -0.2,-2.02c0,-2.08 0.04,-2.34 0.33,-2.28c0.27,0.04 0.33,0.46 0.41,2.54zm2.18,-1.34c0,2.06 -0.21,3.54 -0.51,3.54c-0.21,0 -0.27,-0.52 -0.27,-2.39c0,-2.23 0.02,-2.39 0.39,-2.39c0.35,0 0.39,0.15 0.39,1.24zm1.91,0.98c-0.02,1.56 -0.06,1.91 -0.14,1.15l-0.1,-1.08l-0.12,1.41c-0.12,1.26 -0.14,1.13 -0.16,-1c-0.02,-1.32 0.02,-2.47 0.1,-2.54c0.35,-0.41 0.45,0.04 0.41,2.06zm4.72,0.17l0,2.39l-0.49,0l-0.49,0l0,-2.39l0,-2.39l0.49,0l0.49,0l0,2.39zm2.11,0.15c-0.06,2.23 -0.1,2.56 -0.39,2.62c-0.31,0.07 -0.35,-0.17 -0.35,-2.54c0,-2.49 0.02,-2.62 0.39,-2.62c0.39,0 0.41,0.11 0.35,2.54zm1.91,3.86c0.12,5.73 0.12,6.14 -0.23,6.83l-0.37,0.76l-0.06,-4.23c-0.02,-2.32 0.02,-4.25 0.1,-4.27c0.1,-0.04 0.14,-1.3 0.1,-2.82c-0.04,-1.82 0,-2.71 0.14,-2.56c0.1,0.13 0.25,2.82 0.33,6.29zm2.81,-3.9c0,1.84 -0.06,2.49 -0.23,2.49c-0.14,0 -0.1,0.11 0.1,0.24c0.29,0.2 0.33,0.65 0.33,4.53c0,2.39 -0.08,4.34 -0.18,4.34c-0.57,0 -0.62,-0.72 -0.59,-7.18c0.02,-3.62 0.08,-6.66 0.12,-6.77c0.04,-0.09 0.16,-0.15 0.27,-0.15c0.1,0 0.18,1.08 0.18,2.49zm2.15,-0.09c0,2.17 -0.04,2.39 -0.33,2.32c-0.37,-0.07 -0.37,0 -0.29,-3.1c0.04,-1.28 0.1,-1.63 0.33,-1.63c0.23,0 0.29,0.41 0.29,2.41zm2.3,0.2c0.06,2.75 -0.16,3.06 -0.37,0.48l-0.14,-1.67l0.04,1.89c0,1.02 -0.04,1.82 -0.12,1.76c-0.1,-0.04 -0.16,-1.21 -0.16,-2.58c0,-2.28 0.04,-2.49 0.35,-2.43c0.29,0.07 0.33,0.39 0.39,2.56zm2.09,2.93c0.14,4.94 0.12,5.64 -0.2,6.51c-0.18,0.54 -0.41,1.02 -0.51,1.08c-0.1,0.09 -0.18,-1.45 -0.18,-3.77c0,-3.6 0.02,-3.93 0.35,-3.93c0.23,0 0.27,-0.04 0.08,-0.2c-0.35,-0.24 -0.31,-5.23 0.06,-5.23c0.2,0 0.27,1.26 0.39,5.53zm4.45,-3.1c-0.06,1.34 -0.2,2.58 -0.29,2.71c-0.16,0.2 -0.12,0.28 0.1,0.28c0.45,0 0.53,0.67 0.53,4.51c0,3.8 -0.1,4.08 -0.82,2.26c-0.37,-0.91 -0.39,-1.26 -0.25,-6.57c0.14,-5.21 0.18,-5.62 0.51,-5.62c0.31,0 0.33,0.2 0.23,2.43zm2.48,0.02l0,2.45l-0.49,0.04l-0.49,0.04l0,-2.49l0,-2.49l0.49,0l0.49,0l0,2.45zm2.15,0.04c0,1.52 -0.08,2.49 -0.2,2.49c-0.1,0 -0.2,0.09 -0.2,0.22c0,0.11 0.14,0.22 0.29,0.22c0.25,0 0.29,0.67 0.29,4.66l0,4.66l-0.49,0l-0.49,0l0,-3.32c0,-6.35 0.23,-11.43 0.53,-11.43c0.2,0 0.25,0.54 0.25,2.49zm2.15,0.02c0,2.21 -0.04,2.49 -0.29,2.26c-0.23,-0.22 -0.29,-0.78 -0.29,-2.52c0,-1.87 0.06,-2.26 0.29,-2.26c0.23,0 0.29,0.43 0.29,2.52zm2.13,0.13c-0.02,1.65 -0.08,2.39 -0.18,1.91c-0.06,-0.41 -0.1,-1.3 -0.08,-1.95l0.06,-1.19l-0.18,0.98c-0.1,0.54 -0.18,1.37 -0.18,1.82c-0.02,0.48 -0.08,0.8 -0.14,0.72c-0.06,-0.07 -0.06,-1.19 0.02,-2.52c0.12,-1.82 0.21,-2.41 0.41,-2.41c0.21,0 0.27,0.54 0.25,2.65zm2.17,-0.37c0,2.1 -0.04,2.28 -0.43,2.52c-0.39,0.24 -0.41,0.22 -0.29,-0.78c0.08,-0.56 0.14,-1.71 0.14,-2.52c0,-1.19 0.06,-1.5 0.29,-1.5c0.23,0 0.29,0.39 0.29,2.28zm2.42,-1.47c0.06,0.46 0.12,3.77 0.12,7.4l0,6.57l-0.53,-0.07l-0.55,-0.07l0,-4.66l0,-4.66l0.45,0.02c0.31,0.02 0.43,-0.09 0.43,-0.43c0,-0.24 -0.1,-0.61 -0.2,-0.78c-0.16,-0.26 -0.2,-0.2 -0.2,0.28c0,0.35 -0.08,0.56 -0.2,0.48c-0.12,-0.09 -0.2,-1.15 -0.2,-2.52c0,-2.17 0.04,-2.36 0.37,-2.36c0.27,0 0.39,0.22 0.49,0.8zm2.07,1.47c0,1.37 -0.08,2.28 -0.2,2.28c-0.12,0 -0.2,-0.91 -0.2,-2.28c0,-1.37 0.08,-2.28 0.2,-2.28c0.12,0 0.2,0.91 0.2,2.28zm2.59,-0.82c0.08,0.82 0.14,4.14 0.14,7.4l0,5.92l-0.43,-0.07c-0.51,-0.07 -0.49,0.24 -0.39,-9.78c0.04,-3.97 0.1,-4.92 0.31,-4.92c0.18,0 0.29,0.46 0.37,1.45zm2.09,1.04c0,1.84 -0.06,2.49 -0.23,2.49c-0.16,0.02 -0.12,0.13 0.1,0.3c0.29,0.26 0.33,0.76 0.33,4.88l0,4.6l-0.43,-0.07c-0.43,-0.07 -0.45,-0.2 -0.51,-1.91c-0.04,-1.02 0,-4.32 0.06,-7.33c0.12,-4.45 0.2,-5.47 0.41,-5.47c0.21,0 0.27,0.52 0.27,2.49zm2.54,-0.07l0,2.45l-0.59,0.02l-0.59,0.02l0,-2.45l0,-2.47l0.59,0l0.59,0l0,2.43zm2.15,-0.24c0,1.65 -0.08,2.26 -0.29,2.49c-0.25,0.3 -0.29,0.07 -0.29,-2.17c0,-2.08 0.06,-2.52 0.29,-2.52c0.23,0 0.29,0.39 0.29,2.19zm2.63,3.54c0.16,6.18 0.08,6.81 -0.8,7.74l-0.49,0.5l0.1,-0.85c0.06,-0.48 0.16,-3.41 0.21,-6.51c0.1,-4.75 0.16,-6.12 0.27,-6.57c0.02,-0.02 0.14,-0.04 0.29,-0.04c0.21,0 0.29,1.11 0.41,5.73zm-61.16,-3.69c0,0.13 -0.14,0.02 -0.29,-0.22c-0.16,-0.22 -0.27,-0.56 -0.27,-0.74c0,-0.35 0.55,0.61 0.57,0.95zm7.12,3.8c0.06,0.37 0.08,2.28 0.02,4.29c-0.06,2 -0.12,3.86 -0.12,4.14c0,0.54 -0.41,0.63 -0.82,0.2c-0.2,-0.22 -0.23,-1.26 -0.2,-4.66c0.06,-4.55 0.04,-4.42 0.86,-4.58c0.06,0 0.18,0.26 0.25,0.61zm2.15,0.28c0.06,0.52 0.1,2.65 0.06,4.73l-0.06,3.8l-0.49,0l-0.49,0l-0.06,-4.73l-0.04,-4.71l0.47,0c0.41,0 0.51,0.13 0.6,0.91zm2.05,4.01l0,4.64l-0.43,-0.07c-0.45,-0.07 -0.45,-0.09 -0.51,-4.51c-0.02,-2.43 0,-4.55 0.04,-4.68c0.06,-0.15 0.27,-0.22 0.49,-0.15c0.39,0.11 0.41,0.26 0.41,4.77zm4.58,-4.01c0.06,0.52 0.1,2.65 0.06,4.73l-0.06,3.8l-0.59,0l-0.59,0l-0.06,-4.73l-0.04,-4.71l0.57,0c0.53,0 0.59,0.07 0.7,0.91zm9.09,-0.33c0.04,0.35 0.06,2.43 0.02,4.66l-0.06,4.08l-0.59,0l-0.57,0l0,-3.99c0,-4.75 0.08,-5.34 0.68,-5.34c0.33,0 0.47,0.15 0.51,0.59zm2.32,3.95c0,4.42 -0.06,4.79 -0.82,4.79c-0.33,0 -0.35,-0.3 -0.35,-4.53c0,-4.55 0,-4.55 0.45,-4.62c0.23,-0.04 0.49,-0.04 0.59,0c0.08,0.04 0.14,2 0.14,4.36zm8.86,-3.86c0.06,0.37 0.12,2.54 0.12,4.77l0,4.1l-0.53,-0.13c-0.31,-0.09 -0.6,-0.2 -0.68,-0.24c-0.1,-0.04 -0.16,-2.13 -0.16,-4.64l0,-4.53l0.57,0c0.47,0 0.57,0.11 0.68,0.67zm4.37,4.16l0.04,4.73l-0.43,-0.07l-0.45,-0.07l-0.06,-4.73l-0.04,-4.73l0.43,0.07l0.45,0.07l0.06,4.73zm2.15,0.13l0.04,4.6l-0.53,-0.07l-0.55,-0.07l-0.06,-4.23c-0.06,-4.92 -0.02,-5.27 0.6,-5.01c0.43,0.17 0.43,0.24 0.49,4.77zm2.11,-4.71c0.02,0.04 0.08,2.1 0.1,4.62l0.06,4.55l-0.59,0l-0.57,0l-0.06,-3.8c-0.04,-2.08 0,-4.21 0.06,-4.71c0.1,-0.76 0.18,-0.89 0.53,-0.82c0.21,0.07 0.43,0.13 0.47,0.15zm4.53,4.47l0.04,4.6l-0.49,0l-0.49,0l0,-4.32c0,-2.39 0.06,-4.47 0.12,-4.64c0.06,-0.17 0.25,-0.3 0.43,-0.28c0.29,0.07 0.33,0.54 0.39,4.64zm7.16,-3.82c0.06,0.52 0.1,2.65 0.06,4.73l-0.06,3.8l-0.6,0.07c-0.51,0.07 -0.64,-0.02 -0.74,-0.43c-0.16,-0.65 -0.16,-7.2 0,-8.26c0.12,-0.69 0.2,-0.8 0.68,-0.8c0.49,0 0.55,0.09 0.66,0.91zm-38.33,3.86l0,4.55l-0.59,0l-0.59,0l0,-4.55l0,-4.55l0.59,0l0.59,0l0,4.55zm40.58,-0.02c0,4.42 -0.02,4.55 -0.41,4.68c-0.23,0.09 -0.47,0.07 -0.55,-0.04c-0.08,-0.09 -0.12,-2.19 -0.06,-4.68l0.08,-4.49l0.47,0l0.47,0l0,4.53z" fill="#2971ff" id="svg_2"/>
  <path d="m88.74,19.36c-1.27,0.35 -2.17,0.95 -3.2,2.21c-1.29,1.56 -1.64,2.65 -1.66,5.08c0,1.89 0.06,2.19 0.62,3.49c0.8,1.8 1.91,3.06 3.43,3.86c2.2,1.17 4.88,1.08 7.26,-0.2c1.35,-0.74 1.76,-1.32 2.54,-3.71c0.98,-2.91 0.64,-5.38 -1.03,-7.68c-2.09,-2.88 -4.78,-3.9 -7.96,-3.06zm3.98,3.14c2.48,1.41 3.36,5.1 1.78,7.53c-0.88,1.34 -2.38,2.26 -3.78,2.26c-2.44,0 -4.64,-2.32 -4.66,-4.88c-0.02,-3.95 3.63,-6.61 6.67,-4.9z" fill="#2971ff" id="svg_4"/>
  <path d="m88.87,25.31c-0.94,1.08 -1.09,1.84 -0.6,2.97c0.47,1.06 1.27,1.63 2.34,1.63c1.03,0 1.87,-0.48 2.34,-1.37c0.6,-1.06 0.51,-2.1 -0.25,-3.08c-0.6,-0.76 -0.74,-0.85 -1.87,-0.93c-1.19,-0.09 -1.21,-0.09 -1.95,0.78z" fill="#2971ff" id="svg_5"/>
  <path d="m87.08,36.58c-0.76,0.09 -1.23,1.39 -1.11,2.97c0.06,0.74 0.21,1.3 0.37,1.43c0.21,0.13 0.21,0.24 0.02,0.46c-0.29,0.33 -0.31,1.95 -0.02,2.28c0.14,0.15 0.08,0.48 -0.2,1.06c-0.88,1.82 -0.45,3.67 1.46,6.31l1.44,2.02l-1.23,0.65c-0.66,0.35 -1.6,1 -2.03,1.41c-1.64,1.56 -2.67,5.1 -2.2,7.57c0.25,1.43 1.15,2.88 1.89,3.1c0.64,0.17 4.92,0.2 12.88,0.11c4.84,-0.07 5.7,-0.13 5.79,-0.41c0.21,-0.61 0.12,-2.43 -0.14,-2.6c-0.14,-0.09 -0.78,-0.91 -1.42,-1.8c-0.62,-0.89 -1.23,-1.71 -1.31,-1.84c-0.76,-1.04 -2.28,-3.84 -2.97,-5.42c-2.03,-4.62 -2.79,-8.68 -2.54,-13.51c0.1,-1.87 0.08,-2.84 -0.1,-3.27l-0.21,-0.61l-3.94,0.02c-2.17,0.02 -4.17,0.04 -4.45,0.09zm5.77,4.16c-0.08,0.13 -1.07,0.22 -2.34,0.22c-1.27,0 -2.26,-0.09 -2.34,-0.22c-0.08,-0.13 0.74,-0.22 2.34,-0.22c1.6,0 2.42,0.09 2.34,0.22zm0,3.25c0.08,0.13 -0.74,0.22 -2.32,0.22c-1.5,0 -2.46,-0.09 -2.46,-0.22c0,-0.13 0.9,-0.22 2.32,-0.22c1.35,0 2.38,0.09 2.46,0.22zm-1.66,3.58c-0.18,0.24 -0.64,0.33 -1.78,0.33c-1.42,0 -1.76,-0.13 -1.4,-0.5c0.06,-0.09 0.86,-0.15 1.78,-0.15c1.44,0 1.62,0.04 1.4,0.33zm3.59,4.36c0.06,0.17 0.04,0.26 -0.08,0.2c-0.12,-0.07 -0.2,-0.22 -0.2,-0.35c0,-0.3 0.14,-0.24 0.27,0.15zm-4.27,4.45c1.6,0.5 2.83,2.65 2.52,4.42c-0.53,3.12 -4.35,4.27 -6.18,1.87c-1.23,-1.63 -1.11,-3.71 0.27,-5.25c1.03,-1.15 2.03,-1.45 3.39,-1.04zm7.2,2.75c0.06,0.91 0.18,1.95 0.23,2.3l0.1,0.61l-0.64,-0.41l-0.64,-0.41l-0.06,-2.15c-0.06,-2.6 0.04,-3.04 0.53,-2.19c0.21,0.37 0.41,1.21 0.49,2.26z" fill="#2971ff" id="svg_8"/>
  <path d="m88.5,58.88c-0.9,0.93 -0.98,1.63 -0.27,2.49c0.45,0.56 0.72,0.72 1.27,0.72c0.99,0 1.7,-0.76 1.7,-1.84c0,-1.02 -0.49,-1.69 -1.39,-1.84c-0.59,-0.11 -0.8,-0.04 -1.31,0.48z" fill="#2971ff" id="svg_9"/>
  <path d="m153.97,12.03c-0.7,0.41 -0.94,0.93 -0.94,2.13c0,1.19 0.39,1.71 1.54,2.1c0.66,0.22 0.86,0.2 1.4,-0.15c0.35,-0.24 0.82,-0.76 1.03,-1.15c1.01,-1.93 -1.19,-4.06 -3.04,-2.93z" fill="#2971ff" id="svg_14"/>
  <path d="m53.54,20.27c-6.71,1.58 -12.54,7.14 -14.67,13.97c-1.29,4.12 -1.27,9.63 0.02,13.75c1.72,5.42 6.05,10.15 11.08,12.08c4.17,1.58 9.44,1.69 13.62,0.26c3.1,-1.06 6.16,-3.23 8.08,-5.68c3.63,-4.64 5.19,-9.93 4.68,-15.77c-0.41,-4.9 -2.2,-9.11 -5.42,-12.69c-3.78,-4.21 -8.47,-6.29 -13.97,-6.25c-1.17,0 -2.71,0.15 -3.41,0.33z" fill="#2971ff" id="svg_15"/>
  <path d="m124.5,19.97c-6.65,0.72 -13.11,6.07 -15.72,13.08c-1.17,3.08 -1.46,4.84 -1.46,8.57c0,4.81 0.55,7.01 2.77,10.84c3.61,6.25 10.2,9.5 17.6,8.68c2.71,-0.28 4.53,-0.87 6.94,-2.17c6.2,-3.34 9.93,-9.61 10.36,-17.37c0.31,-5.99 -1.48,-11.28 -5.29,-15.51c-4.17,-4.62 -9.44,-6.75 -15.2,-6.12z" fill="#2971ff" id="svg_16"/>
  <path d="m31.03,61.55c-0.47,0.56 -0.39,1.08 0.21,1.24c0.66,0.2 1.09,-0.13 1.25,-0.93c0.1,-0.61 0.08,-0.65 -0.51,-0.67c-0.39,-0.02 -0.76,0.13 -0.96,0.37z" fill="#2971ff" id="svg_17"/>
  <path d="m26.62,63.33c0,0.59 0.06,0.65 0.55,0.59c0.41,-0.04 0.55,-0.2 0.59,-0.67c0.06,-0.52 0,-0.59 -0.53,-0.59c-0.55,0 -0.6,0.07 -0.6,0.67z" fill="#2971ff" id="svg_18"/>
  <path d="m28.73,63.98c-0.21,0.13 -0.35,0.48 -0.35,0.85c0,0.56 0.08,0.65 0.55,0.65c0.94,0 1.31,-0.74 0.7,-1.39c-0.35,-0.41 -0.45,-0.41 -0.9,-0.11z" fill="#2971ff" id="svg_19"/>
  <path d="m150.25,62.18c-0.62,0.76 -0.37,1.65 0.51,1.89c0.68,0.2 1.11,-0.2 1.11,-1c0,-1.13 -0.99,-1.67 -1.62,-0.89z" fill="#2971ff" id="svg_20"/>
  <path d="m149.33,65.69c-0.55,1.13 0.43,2.3 1.46,1.78c0.45,-0.24 0.51,-0.37 0.45,-1.19c-0.06,-0.91 -0.06,-0.91 -0.88,-0.98c-0.66,-0.07 -0.86,0.02 -1.03,0.39z" fill="#2971ff" id="svg_21"/>
  <path d="m150.64,68.44c-0.08,0.07 -0.14,0.46 -0.14,0.87c0,0.61 0.06,0.72 0.47,0.72c0.27,0 0.62,-0.15 0.78,-0.35c0.37,-0.39 0.37,-0.43 0.12,-0.98c-0.2,-0.39 -0.98,-0.56 -1.23,-0.26z" fill="#2971ff" id="svg_22"/>
  <path d="m76.95,70.66c-1.42,0.33 -2.24,1.21 -2.44,2.69c-0.23,1.69 0.66,3.12 2.26,3.67c2.15,0.72 4.37,-1.76 3.71,-4.14c-0.23,-0.93 -1.37,-2.19 -1.97,-2.19c-0.2,0 -0.47,-0.04 -0.62,-0.09c-0.14,-0.04 -0.57,-0.02 -0.94,0.07z" fill="#2971ff" id="svg_23"/>
  <path d="m141.53,70.94c-0.43,0.52 -0.53,1.67 -0.16,2.08c0.14,0.15 0.57,0.26 0.98,0.26c1.29,0 1.93,-1.21 1.21,-2.34c-0.41,-0.65 -1.48,-0.65 -2.03,0z" fill="#2971ff" id="svg_24"/>
  <path d="m144.45,78.16c0,0.07 0.18,0.3 0.39,0.54c0.21,0.24 0.39,0.56 0.39,0.74c0,0.39 1.64,0.5 5.85,0.35l3.41,-0.11l0.2,-0.72c0.12,-0.46 0.27,-0.67 0.45,-0.59c0.14,0.04 0.2,0 0.14,-0.11c-0.12,-0.22 -10.83,-0.33 -10.83,-0.11z" fill="#2971ff" id="svg_29"/>
  <path d="m144.9,80.92c-0.29,0.72 -0.29,1.45 0.06,2.62c0.21,0.74 0.43,1.06 0.76,1.15c0.25,0.07 2.32,0.09 4.58,0.04c4.08,-0.07 4.14,-0.07 4.51,-0.59c0.47,-0.65 0.51,-2.41 0.06,-3.17l-0.31,-0.54l-4.72,0c-4.72,0 -4.74,0 -4.94,0.48z" fill="#2971ff" id="svg_30"/>
  <path d="m145.39,86.29c-0.31,0.09 -0.47,0.3 -0.51,0.74c-0.14,1.19 -0.02,1.21 4.96,1.21c4.25,0 4.58,-0.02 4.94,-0.41c0.39,-0.43 0.35,-1.28 -0.06,-1.45c-0.35,-0.13 -8.84,-0.2 -9.32,-0.09z" fill="#2971ff" id="svg_31"/>
  <path d="m149,88.83l-3.14,0.07l-0.6,0.63c-0.51,0.52 -0.6,0.8 -0.6,1.63c0,1.54 0.33,1.65 5.01,1.65c3.73,0 5.17,-0.17 5.44,-0.69c0.21,-0.39 0.14,-2.1 -0.12,-2.45c-0.41,-0.54 -1.4,-0.98 -2.13,-0.93c-0.39,0.02 -2.13,0.09 -3.86,0.11z" fill="#2971ff" id="svg_32"/>
  <path d="m145.37,94.06c-0.51,0.11 -0.64,1.06 -0.23,1.56c0.33,0.41 0.62,0.43 4.66,0.43c3.59,0 4.39,-0.07 4.76,-0.35c0.23,-0.17 0.43,-0.5 0.43,-0.72c0,-0.91 -0.43,-0.98 -4.96,-1c-2.38,0 -4.49,0.02 -4.66,0.07z" fill="#2971ff" id="svg_33"/>
  <path d="m143.79,97.36c-0.51,1.02 -0.53,1.52 -0.1,1.52c0.1,0 0.18,-0.11 0.18,-0.26c0,-0.15 0.27,-0.59 0.6,-0.95c0.39,-0.43 0.57,-0.85 0.51,-1.04c-0.21,-0.63 -0.66,-0.37 -1.19,0.74z" fill="#2971ff" id="svg_34"/>
  <path d="m144.43,101.19c-0.57,0.39 -1.15,1.54 -1.15,2.26c0,1.37 1.15,2.58 2.44,2.58c1.03,0 2.24,-1.34 2.24,-2.47c0,-2.15 -1.97,-3.45 -3.53,-2.36z" fill="#2971ff" id="svg_35"/>
  <path d="m124.36,86.23c-1.46,0.59 -1.6,2.86 -0.2,3.21c0.62,0.15 1.4,-0.24 1.89,-0.95c0.78,-1.13 -0.45,-2.75 -1.7,-2.26z" fill="#2971ff" id="svg_36"/>
  <path d="m39.89,98.22c-0.49,0.13 -0.51,0.28 -0.29,1.43c0.12,0.56 0.78,0.78 1.56,0.56c0.51,-0.15 0.59,-0.28 0.64,-1.08c0.04,-0.63 -0.02,-0.91 -0.2,-0.93c-0.14,-0.02 -0.47,-0.04 -0.74,-0.09c-0.27,-0.02 -0.7,0.02 -0.98,0.11z" fill="#2971ff" id="svg_38"/>
  <path d="m39.44,102.06c-0.29,0.3 -0.12,1.39 0.27,1.82c0.31,0.35 0.55,0.43 1.03,0.33c0.76,-0.17 1.09,-0.65 1.09,-1.58l0,-0.72l-1.13,0c-0.62,0 -1.21,0.07 -1.27,0.15z" fill="#2971ff" id="svg_39"/>
  <path d="m154.09,101.56c-0.9,1 -0.92,2.08 -0.06,2.97c0.68,0.69 1.29,0.78 2.13,0.3c1.29,-0.74 1.56,-2.3 0.6,-3.38c-0.82,-0.91 -1.79,-0.87 -2.67,0.11z" fill="#2971ff" id="svg_40"/>
  <path d="m68.41,104.88c-0.35,0.15 -0.64,0.85 -0.51,1.24c0.18,0.5 1.37,0.48 1.48,-0.04c0.18,-0.72 -0.39,-1.41 -0.98,-1.19z" fill="#2971ff" id="svg_41"/>
  <path d="m101.83,105.6c-0.16,0.59 0.23,1.13 0.76,1.04c0.31,-0.04 0.41,-0.22 0.41,-0.72c0,-0.54 -0.08,-0.67 -0.53,-0.72c-0.37,-0.04 -0.55,0.04 -0.64,0.39z" fill="#2971ff" id="svg_42"/>
  <path d="m108.91,112.04c0.66,0.04 1.76,0.04 2.44,0c0.66,-0.04 0.12,-0.07 -1.23,-0.07c-1.35,0 -1.89,0.02 -1.21,0.07z" fill="#2971ff" id="svg_43"/>
  <path d="m104.07,125.55c0,0.11 0.1,0.22 0.2,0.22c0.12,0 0.2,-0.11 0.2,-0.22c0,-0.13 -0.08,-0.22 -0.2,-0.22c-0.1,0 -0.2,0.09 -0.2,0.22z" fill="#2971ff" id="svg_44"/>
  <polygon cx="35.65" cy="41.61" fill="#ff7f00" id="svg_67" orient="point" point="5" points="56.637630462646484,27.611509174108505 59.169944763183594,37.803077548742294 68.92979431152344,37.25402435660362 60.735050201416016,43.003707736730576 64.23458862304688,52.85593017935753 56.637630462646484,46.217880100011826 49.0406608581543,52.85593017935753 52.54024887084961,43.003707736730576 44.345462799072266,37.25402435660362 54.105308532714844,37.803077548742294 56.637630462646484,27.611509174108505 59.169944763183594,37.803077548742294 " r="403.07" r2="134.36" radialshift="0" shape="star" starRadiusMultiplier="3" stroke-width="NaN"/>
  <polygon cx="35.65" cy="41.61" fill="#ff7f00" id="svg_68" orient="point" point="5" points="126.81835570931435,27.009099662303925 129.35067382454872,37.200668036937714 139.11051574349403,36.65161484479904 130.91576781868935,42.401298224925995 134.41531005501747,52.25352066755295 126.81835570931435,45.615470588207245 119.22138610482216,52.25352066755295 122.72096648812294,42.401298224925995 114.5261804163456,36.65161484479904 124.28602996468544,37.200668036937714 126.81835570931435,27.009099662303925 129.35067382454872,37.200668036937714 " r="403.07" r2="134.36" radialshift="0" shape="star" starRadiusMultiplier="3" stroke-width="NaN" transform="matrix(1 0 0 1 0 0)"/>
 </g>
</svg>